<?xml version="1.0" standalone="no"?>
<!DOCTYPE svg PUBLIC "-//W3C//DTD SVG 20010904//EN"
 "http://www.w3.org/TR/2001/REC-SVG-20010904/DTD/svg10.dtd">
<svg version="1.0" xmlns="http://www.w3.org/2000/svg"
 width="1184.000000pt" height="720.000000pt" viewBox="0 0 1184.000000 720.000000"
 preserveAspectRatio="xMidYMid meet">

<g transform="translate(0.000000,720.000000) scale(0.100000,-0.100000)"
fill="#000000" stroke="none">
<path d="M3912 4360 c-18 -11 -30 -25 -27 -30 3 -5 0 -7 -8 -4 -18 7 -65 -41
-74 -76 -4 -14 -7 -59 -7 -100 -1 -64 3 -80 22 -104 12 -16 22 -35 22 -42 0
-7 -33 -64 -73 -126 -118 -184 -208 -323 -282 -437 -38 -59 -90 -140 -115
-180 -25 -40 -54 -84 -64 -98 -11 -15 -42 -63 -69 -107 -27 -45 -55 -87 -62
-95 -8 -8 -38 -16 -68 -17 -40 -2 -68 -11 -103 -33 -65 -39 -88 -80 -89 -153
0 -49 5 -63 39 -113 l39 -56 -31 -77 c-17 -42 -47 -120 -66 -172 -19 -52 -53
-142 -76 -200 -39 -99 -101 -264 -186 -495 -66 -182 -147 -380 -158 -387 -6
-4 -25 -8 -43 -8 -47 0 -113 -33 -156 -77 -69 -73 -74 -200 -10 -277 118 -142
301 -116 379 54 25 54 28 100 10 142 -6 13 13 27 97 72 57 31 112 65 122 76
10 11 23 20 30 20 6 0 94 50 196 111 101 61 193 117 204 123 91 52 419 253
485 296 8 5 40 24 70 40 30 17 102 60 160 95 58 35 134 80 170 101 36 21 85
52 110 69 25 18 64 42 87 55 l42 23 50 -22 c64 -27 143 -28 194 -1 20 11 41
20 47 20 10 0 36 -17 222 -143 58 -39 136 -90 173 -112 36 -22 89 -57 118 -78
29 -21 82 -58 119 -82 l67 -44 -6 -49 c-6 -54 17 -142 46 -176 9 -10 36 -32
60 -48 36 -22 56 -28 102 -28 31 0 72 7 92 15 46 19 115 98 123 142 11 59 -1
141 -25 174 -12 16 -19 35 -15 42 4 6 53 68 108 136 56 68 135 170 177 228 42
57 101 132 130 165 75 85 149 179 161 203 11 23 -98 -86 -130 -130 -12 -16
-22 -25 -22 -20 0 10 21 36 82 104 22 24 27 35 18 41 -13 8 -36 -15 -95 -95
-33 -45 -41 -77 -17 -67 20 7 6 -17 -20 -36 -10 -7 -18 -19 -18 -25 0 -20 -38
-48 -44 -34 -4 7 -4 2 -2 -10 2 -13 0 -23 -5 -23 -5 0 -9 -6 -9 -14 0 -16 -25
-29 -58 -30 -16 -1 -46 -30 -108 -106 -46 -58 -87 -114 -91 -125 -8 -29 -121
-127 -141 -123 -22 4 -32 83 -20 158 8 53 35 243 43 305 3 17 7 63 11 103 6
68 5 72 -13 72 -11 0 -25 -6 -31 -13 -15 -18 -38 -278 -36 -395 1 -50 -2 -95
-7 -98 -5 -3 -9 0 -9 6 0 6 -4 8 -10 5 -5 -3 -10 -26 -10 -49 0 -45 -22 -83
-50 -87 -45 -5 -59 2 -80 44 -29 55 -98 147 -111 147 -6 0 -7 5 -3 12 4 6 1
16 -7 22 -8 6 -29 40 -48 76 -18 36 -46 81 -62 101 -16 20 -29 39 -29 42 0 3
-20 35 -44 71 -73 108 -70 133 16 157 50 13 48 21 -2 16 -22 -2 -40 0 -40 4 0
5 8 9 18 10 9 0 26 3 37 5 11 3 43 6 70 8 59 3 179 41 196 62 9 11 8 14 -5 14
-10 0 -14 5 -10 11 11 18 -71 1 -158 -33 -43 -17 -78 -35 -78 -40 0 -5 -4 -7
-9 -4 -5 3 -37 -3 -71 -15 -72 -23 -77 -21 -126 57 -15 24 -34 44 -42 44 -9 0
-12 6 -8 16 3 8 2 12 -4 9 -6 -3 -10 -3 -11 2 0 4 -2 18 -3 30 -1 12 -25 53
-53 90 -27 38 -62 90 -76 114 l-27 46 34 99 c69 203 108 341 71 256 -8 -18
-15 -36 -16 -40 0 -4 -10 -25 -21 -46 -14 -27 -22 -35 -28 -26 -10 16 -32 -24
-49 -87 -7 -24 -20 -47 -31 -53 -15 -8 -22 -5 -39 19 -12 16 -21 32 -21 37 0
4 -11 22 -25 40 -14 18 -25 40 -25 49 0 9 38 52 85 97 47 44 82 84 79 89 -3 5
4 9 15 9 10 0 21 -5 23 -12 3 -9 15 -9 49 2 24 7 74 14 111 14 36 1 70 4 74 9
7 7 -19 10 -83 10 -27 -1 -33 3 -32 21 0 11 3 15 6 9 5 -15 33 -18 33 -4 0 5
10 12 23 14 16 3 13 5 -10 6 -25 1 -31 5 -26 17 4 11 9 12 16 5 6 -6 18 -11
27 -11 9 0 2 11 -20 29 -19 16 -38 27 -42 25 -5 -3 -8 0 -8 6 0 7 -7 9 -16 6
-8 -3 -12 -2 -9 4 3 6 1 10 -4 10 -6 0 -11 -6 -11 -12 0 -9 -4 -8 -10 2 -9 13
-10 13 -10 0 0 -13 -1 -13 -10 0 -8 13 -10 12 -10 -3 0 -12 -6 -17 -17 -15
-22 4 -88 -57 -78 -72 4 -6 -1 -22 -9 -35 -10 -16 -14 -35 -10 -52 4 -22 3
-25 -5 -13 -9 13 -11 13 -11 -1 0 -20 -34 -52 -44 -42 -13 13 -30 10 -58 -9
-14 -10 -34 -18 -45 -18 -19 0 -65 51 -85 94 -12 28 -24 33 -31 14 -2 -7 -2
-2 0 10 3 17 0 21 -8 16 -7 -4 -9 -3 -6 3 6 10 -46 110 -75 143 -21 24 -53 74
-61 93 -4 11 -12 15 -18 11 -7 -4 -10 -3 -6 2 3 5 -2 18 -10 29 -15 19 -15 19
-9 -5 3 -14 6 -33 6 -42 0 -11 5 -15 15 -12 9 4 15 0 15 -10 0 -9 -6 -13 -15
-10 -8 4 3 -27 29 -74 54 -100 97 -162 114 -162 7 0 10 -5 7 -10 -4 -6 12 -39
34 -74 23 -35 39 -70 36 -78 -6 -16 -152 -144 -220 -193 -22 -16 -74 -62 -116
-101 -42 -40 -89 -80 -103 -89 -25 -16 -27 -16 -53 1 -16 11 -37 21 -48 24
-18 6 -20 14 -19 110 1 58 5 209 10 335 5 127 8 313 6 414 -2 101 -1 194 2
207 14 53 80 50 108 -5 40 -78 86 -149 121 -185 21 -23 38 -43 37 -46 -1 -2 4
-6 11 -9 8 -2 10 2 5 14 -4 11 -1 22 6 26 9 6 9 12 -3 26 -9 10 -27 38 -40 63
-13 25 -37 63 -55 85 -34 44 -69 113 -62 121 10 9 111 -35 137 -59 25 -23 92
-72 199 -143 37 -25 49 -29 55 -18 7 12 12 11 32 -2 14 -9 25 -12 25 -7 0 23
-156 139 -267 199 -40 21 -73 42 -73 47 0 5 -8 6 -17 3 -10 -4 -14 -4 -10 0 4
4 1 14 -6 22 -7 9 -12 46 -12 91 -1 113 -41 178 -134 217 -49 20 -120 18 -159
-6z m39 -412 c3 -41 -3 -263 -12 -448 -5 -118 -11 -307 -13 -420 -3 -133 -8
-206 -15 -208 -55 -18 -119 -63 -146 -102 -28 -40 -36 -45 -74 -48 -24 -2 -73
2 -110 8 -36 6 -113 16 -171 21 -58 5 -111 11 -117 14 -14 5 -63 108 -63 132
0 8 14 35 30 60 17 24 30 46 30 49 0 2 18 27 40 55 22 28 40 55 40 61 0 9 80
136 330 523 54 83 105 166 115 185 18 35 48 80 74 113 16 20 61 23 62 5z m675
-821 c40 -49 114 -180 114 -203 0 -10 -22 -84 -49 -164 -27 -80 -57 -173 -67
-207 l-17 -63 -56 -17 c-31 -9 -63 -23 -72 -30 -23 -19 -59 -16 -99 9 -51 32
-79 48 -140 78 -31 15 -61 34 -67 41 -6 8 -13 48 -16 89 -2 41 -6 83 -8 94 -4
19 43 64 251 241 52 44 111 97 132 118 45 43 67 46 94 14z m187 -291 c9 -7 17
-16 17 -19 0 -4 17 -32 38 -63 20 -31 41 -65 47 -75 5 -11 15 -19 22 -19 7 0
13 -6 13 -14 0 -7 14 -39 31 -71 17 -31 28 -63 25 -70 -8 -23 -179 -93 -247
-102 -31 -4 -39 0 -67 31 -35 40 -36 26 16 181 16 50 39 123 51 163 12 39 25
72 29 72 4 0 15 -7 25 -14z m-1403 -157 c41 -4 122 -13 180 -19 58 -6 113 -13
122 -16 16 -5 48 -81 48 -115 0 -10 -40 -60 -88 -111 -48 -51 -136 -147 -196
-213 -60 -66 -127 -140 -151 -165 -23 -25 -129 -139 -235 -255 -317 -346 -515
-552 -518 -539 -2 7 11 48 28 91 40 99 153 401 191 513 16 47 37 101 48 120
11 19 24 55 31 79 6 24 23 69 37 100 14 31 42 106 63 166 55 156 94 247 110
256 8 4 32 11 53 14 29 5 51 19 90 60 46 48 56 54 82 49 17 -3 64 -10 105 -15z
m764 -182 c29 -22 134 -83 201 -117 29 -14 30 -18 30 -80 l0 -65 -40 -22 c-79
-44 -102 -57 -220 -128 -66 -39 -149 -88 -185 -109 -36 -20 -96 -57 -135 -81
-38 -24 -81 -50 -95 -58 -14 -7 -43 -24 -65 -36 -22 -13 -60 -35 -85 -50 -25
-16 -82 -50 -128 -77 -84 -50 -104 -62 -206 -124 -31 -19 -69 -41 -83 -49 -24
-13 -277 -166 -413 -251 -111 -68 -114 -51 -9 53 52 51 145 149 207 217 204
224 266 291 353 384 47 50 102 109 122 131 20 22 73 78 118 125 44 47 91 101
104 120 13 19 58 70 102 112 l78 78 49 -15 c91 -28 182 -10 230 44 24 27 32
26 70 -2z m937 -123 c50 -74 100 -154 125 -199 9 -16 36 -55 60 -87 24 -31 44
-61 44 -67 0 -7 7 -14 15 -17 8 -4 15 -14 15 -23 0 -9 15 -39 33 -66 53 -83
72 -124 62 -134 -10 -9 -115 50 -228 127 -27 17 -52 32 -56 32 -5 0 -14 7 -21
15 -11 14 -194 137 -267 181 -18 10 -57 36 -88 57 l-56 39 3 51 c3 48 5 52 33
60 17 5 44 15 60 22 17 7 62 23 100 35 39 12 77 26 85 31 28 16 37 9 81 -57z
m752 -474 c-27 -38 -53 -58 -53 -41 0 12 62 81 72 81 5 0 -3 -18 -19 -40z"/>
<path d="M5352 4010 c7 -11 17 -20 22 -20 4 0 3 6 -3 14 -9 11 -9 15 1 19 7 3
3 6 -10 6 -20 1 -21 -1 -10 -19z"/>
<path d="M5321 3976 c-6 -7 -9 -22 -5 -32 4 -13 3 -15 -3 -6 -7 10 -16 7 -36
-14 -15 -15 -27 -32 -27 -38 0 -6 4 -6 9 2 4 8 15 12 23 10 18 -4 82 68 73 82
-9 14 -20 13 -34 -4z"/>
<path d="M4560 3766 c0 -2 7 -7 16 -10 8 -3 12 -2 9 4 -6 10 -25 14 -25 6z"/>
<path d="M5091 3725 c-43 -47 -52 -75 -24 -75 9 0 13 -3 9 -7 -3 -4 -59 -6
-124 -4 -113 2 -119 4 -167 35 -73 48 -90 56 -124 56 -16 0 -33 5 -36 10 -8
13 -25 13 -25 1 0 -10 39 -27 53 -23 5 1 6 -1 3 -6 -13 -21 128 -118 151 -104
6 4 74 7 151 7 77 0 138 4 135 8 -2 4 8 23 24 42 62 75 75 95 59 89 -9 -3 -16
-1 -16 5 0 23 -29 9 -69 -34z"/>
<path d="M5596 3730 c6 -6 21 -6 39 -1 30 9 30 9 -9 10 -26 1 -37 -2 -30 -9z"/>
<path d="M4295 3660 c3 -5 8 -10 11 -10 2 0 4 5 4 10 0 6 -5 10 -11 10 -5 0
-7 -4 -4 -10z"/>
<path d="M5000 3666 c0 -2 9 -6 20 -9 11 -3 20 -1 20 4 0 5 -9 9 -20 9 -11 0
-20 -2 -20 -4z"/>
<path d="M5310 3664 c-44 -15 -90 -38 -90 -46 0 -5 -4 -7 -9 -4 -5 4 -11 2
-13 -3 -1 -5 -25 -11 -52 -14 -67 -9 -70 -17 -5 -18 78 -2 87 0 159 27 91 34
106 46 50 39 l-45 -6 30 15 c23 11 25 14 10 14 -11 0 -27 -2 -35 -4z"/>
<path d="M5109 3537 c-18 -13 -31 -88 -19 -107 19 -31 46 35 38 93 -3 22 -5
24 -19 14z"/>
<path d="M5185 3321 c3 -5 -8 -11 -25 -13 l-31 -3 67 -68 c60 -62 94 -80 86
-46 -3 11 -1 12 9 2 16 -16 29 -17 29 -2 0 13 -120 139 -132 139 -5 0 -7 -4
-3 -9z"/>
<path d="M5978 3201 c-9 -11 -23 -41 -30 -68 -9 -30 -20 -48 -29 -47 -9 1 -14
-9 -14 -25 0 -14 -4 -39 -8 -56 -7 -28 -7 -28 6 -10 7 11 24 45 36 75 12 30
32 74 43 98 22 48 21 62 -4 33z"/>
<path d="M5417 3067 c-17 -21 -16 -22 29 -67 26 -25 48 -40 51 -34 2 7 13 10
23 7 32 -9 23 10 -32 64 l-53 52 -18 -22z"/>
<path d="M6250 2920 c-19 -5 -36 -13 -38 -19 -2 -6 -25 -12 -50 -12 -34 -2
-39 -3 -17 -6 17 -3 35 -9 42 -14 7 -7 33 -3 75 11 74 25 99 43 48 34 -26 -4
-31 -3 -20 5 17 12 9 12 -40 1z m7 -16 c-3 -3 -12 -4 -19 -1 -8 3 -5 6 6 6 11
1 17 -2 13 -5z"/>
<path d="M5580 2856 c0 -8 6 -17 13 -19 10 -4 10 -6 0 -6 -7 -1 -13 -10 -13
-21 0 -22 15 -27 26 -8 5 7 3 8 -7 3 -9 -5 -8 -1 3 11 12 14 14 24 7 37 -12
21 -29 23 -29 3z"/>
<path d="M6578 2784 c-4 -3 -14 -7 -24 -8 -10 -2 -20 -9 -22 -17 -3 -11 -1
-11 7 1 6 8 11 10 11 4 0 -11 -50 -50 -60 -47 -3 1 -5 -12 -5 -29 l0 -30 43
47 c24 27 47 56 53 66 10 19 8 25 -3 13z"/>
<path d="M5906 2758 c-3 -13 -6 -59 -6 -103 l1 -80 24 30 c25 30 33 51 17 41
-5 -3 -9 22 -8 54 0 64 -16 99 -28 58z"/>
<path d="M5961 2735 c-1 -11 -4 -33 -6 -50 -3 -24 -2 -27 6 -12 6 9 8 32 6 50
-2 17 -5 23 -6 12z"/>
<path d="M6055 2190 c3 -5 10 -10 16 -10 5 0 9 5 9 10 0 6 -7 10 -16 10 -8 0
-12 -4 -9 -10z"/>
</g>
</svg>
